<svg xmlns="http://www.w3.org/2000/svg" id="flag-icon-css-ai" viewBox="0 0 512 512">
  <defs id="defs1837">
    <clipPath id="a">
      <path id="path1834" fill-opacity=".7" d="M0 0h640v480H0z"/>
    </clipPath>
  </defs>
  <path id="rect4120" fill="#012169" fill-opacity="1" stroke-width="4.1" d="M0 0h512v512H0z"/>
  <path id="path1855" fill="#49497d" d="M384 212.7l2 2z"/>
  <path id="path1857" fill="#0e0e6e" d="M386 212.7l2 2z"/>
  <path id="path1859" fill="#262678" d="M379.9 214.7l2 2z"/>
  <path id="path1861" fill="#808067" d="M382 214.7l2 2z"/>
  <path id="path1863" fill="#58587b" d="M388 214.7l2 2z"/>
  <path id="path1865" fill="#0e0e6e" d="M312.9 216.8l2 2z"/>
  <path id="path1867" fill="#1b1b74" d="M375.9 216.8l2 2z"/>
  <path id="path1869" fill="#6e6c70" d="M377.9 216.8l2 2z"/>
  <path id="path1871" fill="#cc3" d="M316.5 220.4c0 52.5-6 111.6 33 152.7 8 8.4 23.4 27.7 36.5 27 13.7-.8 31.4-21.1 39.2-31 34-44.8 28.7-98.2 29.8-150.2-15.3 6.9-23 9.2-36.4 9-10 1-25.3-5.5-34.5-10-6 4-14.7 8.9-30.4 9.4-18 .8-23.8-2.3-37.2-7z"/>
  <path id="path1873" fill="#99994e" d="M390 216.8l2 2z"/>
  <path id="path1875" fill="#49497d" d="M392 216.8l2 2z"/>
  <path id="path1877" fill="#0e0e6e" d="M455 216.8l2 2z"/>
  <path id="path1879" fill="#a4a43d" d="M315 218.8l2 2z"/>
  <path id="path1881" fill="#6e6c70" d="M317 218.8l2 2z"/>
  <path id="path1883" fill="#3a3a7c" d="M319 218.8l2 2z"/>
  <path id="path1885" fill="#1b1b74" d="M371.8 218.8l2 2z"/>
  <path id="path1887" fill="#6e6c70" d="M373.8 218.8l2 2z"/>
  <path id="path1889" fill="#a4a43d" d="M375.9 218.8l2 2z"/>
  <path id="path1891" fill="#d0d045" d="M384 218.8l2 2z"/>
  <path id="path1893" fill="#a4a43d" d="M392 218.8l2 2z"/>
  <path id="path1895" fill="#8d8d5b" d="M394 218.8l2 2z"/>
  <path id="path1897" fill="#3a3a7c" d="M396.2 218.8l2 2z"/>
  <path id="path1899" fill="#262678" d="M448.9 218.8l2 2z"/>
  <path id="path1901" fill="#53527c" d="M451 218.8l2 2z"/>
  <path id="path1903" fill="#8d8d5b" d="M453 218.8l2 2z"/>
  <path id="path1905" fill="#737370" d="M323 220.9l2 2z"/>
  <path id="path1907" fill="#53527c" d="M325 220.9l2 2z"/>
  <path id="path1909" fill="#1b1b74" d="M327 220.9l2 2z"/>
  <path id="path1911" fill="#262678" d="M367.7 220.9l2 2z"/>
  <path id="path1913" fill="#6e6c70" d="M369.8 220.9l2 2z"/>
  <path id="path1915" fill="#a4a43d" d="M371.8 220.9l2 2z"/>
  <path id="path1917" fill="#e5e59d" d="M382 220.9l2 2z"/>
  <path id="path1919" fill="#fff" d="M320.6 226a509 509 0 004 88.2c4.9 15.4 4.2 23.9 11.3 33l99-.7c6-9.7 10.5-24.4 11-30.3 5.6-29.7 5.7-62.6 5.9-92a62 62 0 01-35.7 7.4 69 69 0 01-30.5-9.2c-9.5 5.6-12.8 8.2-28.4 8.9-12.2.6-22 1.6-36.6-5.2z"/>
  <path id="path1921" fill="#f2f1d7" d="M386 220.9l2 2z"/>
  <path id="path1923" fill="#d9d868" d="M388 220.9l2 2z"/>
  <path id="path1925" fill="#a4a43d" d="M396.2 220.9l2 2z"/>
  <path id="path1927" fill="#99994e" d="M398.2 220.9l2 2z"/>
  <path id="path1929" fill="#49497d" d="M400.2 220.9l2 2z"/>
  <path id="path1931" fill="#0e0e6e" d="M402.2 220.9l2 2z"/>
  <path id="path1933" fill="#3a3a7c" d="M442.9 220.9l2 2z"/>
  <path id="path1935" fill="#667" d="M444.9 220.9l2 2z"/>
  <path id="path1937" fill="#99994e" d="M446.9 220.9l2 2z"/>
  <path id="path1939" fill="#a4a43d" d="M448.9 220.9l2 2-2-2m-121.8 2l2 2z"/>
  <path id="path1941" fill="#99994e" d="M329.2 222.9l2 2z"/>
  <path id="path1943" fill="#6e6c70" d="M331.2 222.9l2 2z"/>
  <path id="path1945" fill="#49497d" d="M333.2 222.9l2 2z"/>
  <path id="path1947" fill="#1b1b74" d="M335.2 222.9l2 2-2-2m26.4 0l2 2z"/>
  <path id="path1949" fill="#53527c" d="M363.6 222.9l2 2-2-2z"/>
  <path id="path1951" fill="#8d8d5b" d="M365.7 222.9l2 2z"/>
  <path id="path1953" fill="#a4a43d" d="M367.7 222.9l2 2z"/>
  <path id="path1955" fill="#e5e59d" d="M377.9 222.9l2 2z"/>
  <path id="path1957" fill="#fbfaf2" d="M379.9 222.9l2 2z"/>
  <path id="path1959" fill="#f2f1d2" d="M390 222.9l2 2z"/>
  <path id="path1961" fill="#d9d868" d="M392 222.9l2 2z"/>
  <path id="path1963" fill="#a4a43d" d="M402.2 222.9l2 2z"/>
  <path id="path1965" fill="#6e6c70" d="M404.3 222.9l2 2z"/>
  <path id="path1967" fill="#3a3a7c" d="M406.3 222.9l2 2z"/>
  <path id="path1969" fill="#0e0e6e" d="M432.7 222.9l2 2z"/>
  <path id="path1971" fill="#32327b" d="M434.7 222.9l2 2z"/>
  <path id="path1973" fill="#58587b" d="M436.8 222.9l2 2z"/>
  <path id="path1975" fill="#808067" d="M438.8 222.9l2 2z"/>
  <path id="path1977" fill="#a4a43d" d="M442.2 223.5l1.3.7z"/>
  <path id="path1979" fill="#dddc7a" d="M319 224.9l2 2z"/>
  <path id="path1981" fill="#d0d045" d="M321 224.9l2 2z"/>
  <path id="path1983" fill="#a4a43d" d="M336.6 225.5l1.4.7z"/>
  <path id="path1985" fill="#808067" d="M339.3 224.9l2 2z"/>
  <path id="path1987" fill="#667" d="M341.3 224.9l2 2z"/>
  <path id="path1989" fill="#58587b" d="M343.4 224.9l2 2z"/>
  <path id="path1991" fill="#49497d" d="M345.4 224.9l2 2z"/>
  <path id="path1993" fill="#737370" d="M357.6 224.9l2 2z"/>
  <path id="path1995" fill="#99994e" d="M359.6 224.9l2 2z"/>
  <path id="path1997" fill="#a4a43d" d="M361.6 224.9l2 2z"/>
  <path id="path1999" fill="#e5e59d" d="M373.8 224.9l2 2z"/>
  <path id="path3001" fill="#fbfaf2" d="M375.9 224.9l2 2z"/>
  <path id="path3003" fill="#f2f1d2" d="M394 224.9l2 2z"/>
  <path id="path3005" fill="#d9d868" d="M396.2 224.9l2 2z"/>
  <path id="path3007" fill="#a4a43d" d="M407.6 225.5l1.4.7-1.3-.7z"/>
  <path id="path3009" fill="#808067" d="M410.4 224.9l2 2z"/>
  <path id="path3011" fill="#667" d="M412.4 224.9l2 2z"/>
  <path id="path3013" fill="#58587b" d="M414.4 224.9l2 2z"/>
  <path id="path3015" fill="#3a3a7c" d="M416.5 224.9l2 2z"/>
  <path id="path3017" fill="#58587b" d="M425.9 225.5l1.4.7z"/>
  <path id="path3019" fill="#737370" d="M428.6 224.9l2 2z"/>
  <path id="path3021" fill="#99994e" d="M430.6 224.9l2 2-2-2z"/>
  <path id="path3023" fill="#a4a43d" d="M432.7 224.9l2 2z"/>
  <path id="path3025" fill="#dddc7a" d="M448.9 224.9l2 2z"/>
  <path id="path3027" fill="#d0d045" d="M451 224.9l2 2z"/>
  <path id="path3029" fill="#f2f1d7" d="M323 226.9l2 2z"/>
  <path id="path3031" fill="#e0dea1" d="M325 226.9l2 2z"/>
  <path id="path3033" fill="#dddc7a" d="M327 226.9l2 2z"/>
  <path id="path3035" fill="#d9d868" d="M367.7 226.9l2 2z"/>
  <path id="path3037" fill="#e5e3af" d="M369.8 226.9l2 2z"/>
  <path id="path3039" fill="#f6f6e4" d="M398.2 226.9l2 2z"/>
  <path id="path3041" fill="#e1e18c" d="M400.2 226.9l2 2z"/>
  <path id="path3043" fill="#d4d456" d="M440.8 226.9l2 2z"/>
  <path id="path3045" fill="#e1e18c" d="M442.9 226.9l2 2z"/>
  <path id="path3047" fill="#eeedc1" d="M444.9 226.9l2 2z"/>
  <path id="path3049" fill="#f2f1d2" d="M331.2 228.9l2 2z"/>
  <path id="path3051" fill="#e0dea1" d="M333.2 228.9l2 2z"/>
  <path id="path3053" fill="#dddc7a" d="M335.2 228.9l2 2z"/>
  <path id="path3055" fill="#d0d045" d="M337.3 228.9l2 2z"/>
  <path id="path3057" fill="#dddc7a" d="M361.6 228.9l2 2z"/>
  <path id="path3059" fill="#e5e3af" d="M363.6 228.9l2 2-2-2z"/>
  <path id="path3061" fill="#f6f6e4" d="M365.7 228.9l2 2z"/>
  <path id="path3063" fill="#eeedc1" d="M404.3 228.9l2 2z"/>
  <path id="path3065" fill="#e1e18c" d="M406.3 228.9l2 2z"/>
  <path id="path3067" fill="#d4d456" d="M408.3 228.9l2 2z"/>
  <path id="path3069" fill="#d9d868" d="M432.7 228.9l2 2z"/>
  <path id="path3071" fill="#e1e18c" d="M434.7 228.9l2 2z"/>
  <path id="path3073" fill="#eeedc1" d="M436.8 228.9l2 2z"/>
  <path id="path3075" fill="#f6f6e4" d="M438.8 228.9l2 2z"/>
  <path id="path3077" fill="#f2f1d7" d="M341.3 230.9l2 2-2-2z"/>
  <path id="path3079" fill="#f2f1d2" d="M343.4 230.9l2 2-2-2z"/>
  <path id="path3081" fill="#eeedc1" d="M345.4 230.9l2 2-2-2z"/>
  <path id="path3083" fill="#f2f1d2" d="M354.9 231.6l1.3.7z"/>
  <path id="path3085" fill="#fbfaf2" d="M357.6 230.9l2 2-2-2z"/>
  <path id="path3087" fill="#fef8f1" d="M367.7 230.9l4 4v-4h-4z"/>
  <path id="path3089" fill="#f2f1d7" d="M412.4 230.9l2 2-2-2z"/>
  <path id="path3091" fill="#f2f1d2" d="M414.4 230.9l2 2-2-2z"/>
  <path id="path3093" fill="#e5e3af" d="M416.5 230.9l2 2-2-2z"/>
  <path id="path3095" fill="#e5e59d" d="M419.9 231.6l1.3.7-1.4-.7z"/>
  <path id="path3097" fill="#e0dea1" d="M422.6 230.9l2 2-2-2z"/>
  <path id="path3099" fill="#f2f1d2" d="M425.9 231.6l1.4.7z"/>
  <path id="path3101" fill="#fbfaf2" d="M428.6 230.9l2 2-2-2z"/>
  <path id="path3103" fill="#fef8f1" d="M363.6 233l2 2-2-2z"/>
  <path id="path3105" fill="#fbbe66" d="M365.7 233l2 2z"/>
  <path id="path3107" fill="#fbc477" d="M363.6 235l2 2-2-2z"/>
  <path id="path3109" fill="#fcb144" d="M367.7 235l2 2z"/>
  <path id="path3111" fill="#fe9f11" d="M363.6 237l2 2-2-2z"/>
  <path id="path3113" fill="#fea522" d="M367.7 237l2 2z"/>
  <path id="path3115" fill="#fae3c9" d="M361.6 239l2 2-2-2m8.2 0l2 2z"/>
  <path id="path3117" fill="#fbead6" d="M379.9 239l2 2z"/>
  <path id="path3119" fill="#f9d6aa" d="M382 239l2 2z"/>
  <path id="path3121" fill="#fae3c9" d="M390 239l2 2z"/>
  <path id="path3123" fill="#fef8f1" d="M392 239l2 2z"/>
  <path id="path3125" fill="#f9d099" d="M361.6 241l2 2z"/>
  <path id="path3127" fill="#fdab33" d="M369.8 241l2 2z"/>
  <path id="path3129" fill="#fcf1e4" d="M373.8 241l2 2z"/>
  <path id="path3131" fill="#fbc477" d="M375.9 241l2 2z"/>
  <path id="path3133" fill="#fea522" d="M377.9 241l2 2z"/>
  <path id="path3135" fill="#fcb755" d="M394 241l2 2z"/>
  <path id="path3137" fill="#f9d6aa" d="M396.2 241l2 2z"/>
  <path id="path3139" fill="#faca88" d="M361.6 243.2l2 2z"/>
  <path id="path3141" fill="#fea522" d="M371.8 243.2l2 2-2-2m26.4 0l2 2z"/>
  <path id="path3143" fill="#f8dcbb" d="M400.2 243.2l2 2z"/>
  <path id="path3145" fill="#f6f6e4" d="M319 245.2l2 2z"/>
  <path id="path3147" fill="#fbc477" d="M361.6 245.2l2 2z"/>
  <path id="path3149" fill="#fbbe66" d="M402.2 245.2l2 2z"/>
  <path id="path3151" fill="#f8dcbb" d="M404.3 245.2l2 2z"/>
  <path id="path3153" fill="#faca88" d="M361.6 247.2l2 2z"/>
  <path id="path3155" fill="#fcb755" d="M408.3 247.2l2 2z"/>
  <path id="path3157" fill="#f8dcbb" d="M410.4 247.2l2 2z"/>
  <path id="path3159" fill="#fef8f1" d="M359.6 249.3l2 2z"/>
  <path id="path3161" fill="#fe9f11" d="M361.6 249.3l2 2z"/>
  <path id="path3163" fill="#fdab33" d="M418.5 249.3l2 2z"/>
  <path id="path3165" fill="#fcb144" d="M420.6 249.3l2 2z"/>
  <path id="path3167" fill="#fbc477" d="M422.6 249.3l2 2z"/>
  <path id="path3169" fill="#f9d6aa" d="M424.6 249.3l4 4z"/>
  <path id="path3171" fill="#fef8f1" d="M426.6 249.3l2 2z"/>
  <path id="path3173" fill="#fcb144" d="M359.6 251.3l2 2z"/>
  <path id="path3175" fill="#fdab33" d="M388 251.3l2 2z"/>
  <path id="path3177" fill="#fbc477" d="M390 251.3l2 2zm8 0l2.2 2-2-2z"/>
  <path id="path3179" fill="#fea522" d="M400.2 251.3l2 2z"/>
  <path id="path3181" fill="#fae3c9" d="M357.6 253.3l2 2z"/>
  <path id="path3183" fill="#fcb144" d="M384 253.3l2 2z"/>
  <path id="path3185" fill="#fae3c9" d="M386 253.3l2 2z"/>
  <path id="path3187" fill="#f8dcbb" d="M402.2 253.3l2 2z"/>
  <path id="path3189" fill="#fdab33" d="M404.3 253.3l2 2z"/>
  <path id="path3191" fill="#fe9f11" d="M416.5 253.3l2 2z"/>
  <path id="path3193" fill="#fcb755" d="M418.5 253.3l2 2z"/>
  <path id="path3195" fill="#f9d099" d="M420.6 253.3l2 2z"/>
  <path id="path3197" fill="#fbead6" d="M422.6 253.3l2 2z"/>
  <path id="path3199" fill="#fcb144" d="M357.6 255.3l2 2z"/>
  <path id="path3201" fill="#fbbe66" d="M382 255.3l2 2z"/>
  <path id="path3203" fill="#f9d099" d="M406.3 255.3l2 2z"/>
  <path id="path3205" fill="#fbead6" d="M414.4 255.3l2 2z"/>
  <path id="path3207" fill="#fcf1e4" d="M355.6 257.4l2 2z"/>
  <path id="path3209" fill="#fbbe66" d="M379.9 257.4l2 2z"/>
  <path id="path3211" fill="#f9d099" d="M408.3 257.4l2 2z"/>
  <path id="path3213" fill="#fae3c9" d="M414.4 257.4l2 2z"/>
  <path id="path3215" fill="#fbc477" d="M355.6 259.4l2 2z"/>
  <path id="path3217" fill="#fcb144" d="M377.9 259.4l2 2-2-2m32.5 0l2 2z"/>
  <path id="path3219" fill="#fbbe66" d="M414.4 259.4l2 2z"/>
  <path id="path3221" fill="#f6f6e4" d="M319 261.4l2 2z"/>
  <path id="path3223" fill="#fea522" d="M355.6 261.4l2 2z"/>
  <path id="path3225" fill="#fbead6" d="M377.9 261.4l2 2z"/>
  <path id="path3227" fill="#fcf1e4" d="M410.4 261.4l2 2z"/>
  <path id="path3229" fill="#fef8f1" d="M416.5 261.4l2 2z"/>
  <path id="path3231" fill="#fcf1e4" d="M353.6 263.5l2 2z"/>
  <path id="path3233" fill="#fbbe66" d="M375.9 263.5l2 2z"/>
  <path id="path3235" fill="#faca88" d="M412.4 263.5l2 2z"/>
  <path id="path3237" fill="#f9d099" d="M416.5 263.5l2 2z"/>
  <path id="path3239" fill="#f9d6aa" d="M353.6 265.5l2 2z"/>
  <path id="path3241" fill="#fcf1e4" d="M375.9 265.5l2 2z"/>
  <path id="path3243" fill="#fae3c9" d="M386 265.5l2 2z"/>
  <path id="path3245" fill="#fea522" d="M388 265.5l2 2z"/>
  <path id="path3247" fill="#fcb144" d="M390 265.5l2 2z"/>
  <path id="path3249" fill="#f9d6aa" d="M392 265.5l2 2z"/>
  <path id="path3251" fill="#fef8f1" d="M412.4 265.5l2 2z"/>
  <path id="path3253" fill="#fea522" d="M414.4 265.5l2 2z"/>
  <path id="path3255" fill="#fdab33" d="M416.5 265.5l2 2z"/>
  <path id="path3257" fill="#faca88" d="M353.6 267.5l-2.1 6 2-6z"/>
  <path id="path3259" fill="#fea522" d="M373.8 267.5l2 2z"/>
  <path id="path3261" fill="#fef8f1" d="M375.9 267.5l2 2z"/>
  <path id="path3263" fill="#f9d099" d="M386 267.5l2 2z"/>
  <path id="path3265" fill="#fdab33" d="M394 267.5l2 2z"/>
  <path id="path3267" fill="#fae3c9" d="M396.2 267.5l2 2z"/>
  <path id="path3269" fill="#f8dcbb" d="M414.4 267.5l2 2z"/>
  <path id="path3271" fill="#f90" d="M416.5 267.5l2 2z"/>
  <path id="path3273" fill="#fbead6" d="M419.2 268.9l.6 1.3z"/>
  <path id="path3275" fill="#fea522" d="M377.9 269.5l2 2z"/>
  <path id="path3277" fill="#fbbe66" d="M379.9 269.5l2 2z"/>
  <path id="path3279" fill="#faca88" d="M382 269.5l2 2z"/>
  <path id="path3281" fill="#fcb144" d="M384 269.5l2 2z"/>
  <path id="path3283" fill="#fae3c9" d="M386 269.5l2 2z"/>
  <path id="path3285" fill="#fe9f11" d="M388 269.5l2 2z"/>
  <path id="path3287" fill="#fdab33" d="M398.2 269.5l2 2z"/>
  <path id="path3289" fill="#fbc477" d="M400.2 269.5l2 2z"/>
  <path id="path3291" fill="#faca88" d="M402.2 269.5l2 2z"/>
  <path id="path3293" fill="#f9d6aa" d="M404.3 269.5l2 2z"/>
  <path id="path3295" fill="#fae3c9" d="M407.6 270.2l1.4.7-1.3-.7z"/>
  <path id="path3297" fill="#fef8f1" d="M410.4 269.5l2 2z"/>
  <path id="path3299" fill="#fbc477" d="M416.5 269.5l2 2z"/>
  <path id="path3301" fill="#fef8f1" d="M329.2 271.6l2 2z"/>
  <path id="path3303" fill="#fcf1e4" d="M331.2 271.6l2 2z"/>
  <path id="path3305" fill="#fcb755" d="M384 271.6l2 2z"/>
  <path id="path3307" fill="#fbead6" d="M388 271.6l2 2z"/>
  <path id="path3309" fill="#fea522" d="M390 271.6l2 2z"/>
  <path id="path3311" fill="#fe9f11" d="M406.3 271.6l2 2z"/>
  <path id="path3313" fill="#fcb144" d="M408.3 271.6l-2 4z"/>
  <path id="path3315" fill="#fe9f11" d="M412.4 271.6l2 2z"/>
  <path id="path3317" fill="#fbbe66" d="M414.4 271.6l2 2z"/>
  <path id="path3319" fill="#fcf1e4" d="M416.5 271.6l2 2z"/>
  <path id="path3321" fill="#fae3c9" d="M329.2 273.6l2 2z"/>
  <path id="path3323" fill="#fe9f11" d="M331.2 273.6l4 4z"/>
  <path id="path3325" fill="#fbead6" d="M333.2 273.6l2 2zm18.3 0l2 2z"/>
  <path id="path3327" fill="#fae3c9" d="M353.6 273.6l2 2z"/>
  <path id="path3329" fill="#fe9f11" d="M371.8 273.6l2 2z"/>
  <path id="path3331" fill="#fbc477" d="M373.8 273.6l2 2z"/>
  <path id="path3333" fill="#fea522" d="M375.9 273.6l2 2z"/>
  <path id="path3335" fill="#fbc477" d="M382 273.6l2 2z"/>
  <path id="path3337" fill="#fef8f1" d="M384 273.6l2 2z"/>
  <path id="path3339" fill="#fbc477" d="M392 273.6l2 2z"/>
  <path id="path3341" fill="#fff" d="M408.3 273.6l2 2z"/>
  <path id="path3343" fill="#fdab33" d="M410.4 273.6l2 2z"/>
  <path id="path3345" fill="#fbc477" d="M418.5 273.6l2 2z"/>
  <path id="path3347" fill="#fef8f1" d="M329.2 275.6l2 2z"/>
  <path id="path3349" fill="#fbead6" d="M335.2 275.6l2 2z"/>
  <path id="path3351" fill="#f9d6aa" d="M345.4 275.6l2 2z"/>
  <path id="path3353" fill="#fe9f11" d="M355.6 275.6l2 2z"/>
  <path id="path3355" fill="#f9d6aa" d="M358.9 276.3l1.4.7z"/>
  <path id="path3357" fill="#f8dcbb" d="M371.8 275.6l2 2z"/>
  <path id="path3359" fill="#fcf1e4" d="M377.9 275.6l2 2z"/>
  <path id="path3361" fill="#f9d6aa" d="M394 275.6l2 2z"/>
  <path id="path3363" fill="#fdab33" d="M408.3 275.6l2 2z"/>
  <path id="path3365" fill="#fcb755" d="M420.6 275.6l2 2z"/>
  <path id="path3367" fill="#fef8f1" d="M422.6 275.6l2 2z"/>
  <path id="path3369" fill="#53527c" d="M312.9 277.7l2 2z"/>
  <path id="path3371" fill="#fcb755" d="M331.2 277.7l2 2z"/>
  <path id="path3373" fill="#fea522" d="M335.2 277.7l2 2z"/>
  <path id="path3375" fill="#fbead6" d="M343.4 277.7l2 2z"/>
  <path id="path3377" fill="#fe9f11" d="M347.4 277.7l2 2z"/>
  <path id="path3379" fill="#fcf1e4" d="M349.5 277.7l2 2z"/>
  <path id="path3381" fill="#fbbe66" d="M355.6 277.7l2 2z"/>
  <path id="path3383" fill="#fbc477" d="M357.6 277.7l2 2z"/>
  <path id="path3385" fill="#fbbe66" d="M359.6 277.7l2 2z"/>
  <path id="path3387" fill="#fea522" d="M369.8 277.7l2 2z"/>
  <path id="path3389" fill="#f9d6aa" d="M396.2 277.7l2 2z"/>
  <path id="path3391" fill="#fcb144" d="M422.6 277.7l2 2z"/>
  <path id="path3393" fill="#8d8d5b" d="M455 277.7l2 2z"/>
  <path id="path3395" fill="#e5e3af" d="M319 279.7l2 2z"/>
  <path id="path3397" fill="#f8dcbb" d="M331.2 279.7l2 2z"/>
  <path id="path3399" fill="#fdab33" d="M337.3 279.7l2 2z"/>
  <path id="path3401" fill="#fe9f11" d="M343.4 279.7l2 2z"/>
  <path id="path3403" fill="#faca88" d="M347.4 279.7l2 2z"/>
  <path id="path3405" fill="#fcf1e4" d="M355.6 279.7l2 2z"/>
  <path id="path3407" fill="#f9d099" d="M369.8 279.7l2 2-2-2m28.4 0l2 2z"/>
  <path id="path3409" fill="#fbbe66" d="M424.6 279.7l2 2z"/>
  <path id="path3411" fill="#fea522" d="M333.2 281.7l2 2z"/>
  <path id="path3413" fill="#fdab33" d="M339.3 281.7l2 2z"/>
  <path id="path3415" fill="#fea522" d="M341.3 281.7l2 2z"/>
  <path id="path3417" fill="#fe9f11" d="M345.4 281.7l2 2z"/>
  <path id="path3419" fill="#fef8f1" d="M347.4 281.7l2 2z"/>
  <path id="path3421" fill="#fbbe66" d="M357.6 281.7l2 2z"/>
  <path id="path3423" fill="#fef8f1" d="M369.8 281.7l2 2z"/>
  <path id="path3425" fill="#fbbe66" d="M400.2 281.7l2 2z"/>
  <path id="path3427" fill="#f9d099" d="M426.6 281.7l2 2z"/>
  <path id="path3429" fill="#f9d6aa" d="M333.2 283.8l2 2z"/>
  <path id="path3431" fill="#f9d099" d="M345.4 283.8l2 2z"/>
  <path id="path3433" fill="#fcf1e4" d="M357.6 283.8l2 2z"/>
  <path id="path3435" fill="#fdab33" d="M367.7 283.8l2 2-2-2m34.5 0l2 2z"/>
  <path id="path3437" fill="#fbead6" d="M428.6 283.8l2 2z"/>
  <path id="path3439" fill="#fea522" d="M335.2 285.8l2 2z"/>
  <path id="path3441" fill="#fe9f11" d="M343.4 285.8l2 2z"/>
  <path id="path3443" fill="#fcb144" d="M359.6 285.8l2 2z"/>
  <path id="path3445" fill="#faca88" d="M367.7 285.8l2 2z"/>
  <path id="path3447" fill="#f8dcbb" d="M402.2 285.8l2 2z"/>
  <path id="path3449" fill="#fcb144" d="M428.6 285.8l2 2z"/>
  <path id="path3451" fill="#d3d079" d="M319 287.9l2 2z"/>
  <path id="path3453" fill="#faca88" d="M335.2 287.9l2 2zm24.4 0l2 2z"/>
  <path id="path3455" fill="#fae3c9" d="M367.7 287.9l2 2-2-2m34.5 0l2 2z"/>
  <path id="path3457" fill="#f8dcbb" d="M430.6 287.9l2 2-2-2z"/>
  <path id="path3459" fill="#f2f1d7" d="M448.9 287.9l2 2z"/>
  <path id="path3461" fill="#58587b" d="M455.7 289.2l.7 1.3z"/>
  <path id="path3463" fill="#d9d868" d="M319.6 291.2l.8 1.4-.7-1.4z"/>
  <path id="path3465" fill="#f8dcbb" d="M335.2 289.9l2 2z"/>
  <path id="path3467" fill="#f9d6aa" d="M400.2 289.9l2 2z"/>
  <path id="path3469" fill="#fe9f11" d="M402.2 289.9l2 2z"/>
  <path id="path3471" fill="#fcb144" d="M430.6 289.9l2 2-2-2z"/>
  <path id="path3473" fill="#f2f1d2" d="M449.6 291.2l.7 1.4z"/>
  <path id="path3475" fill="#fcf1e4" d="M335.2 291.9l2 2z"/>
  <path id="path3477" fill="#fef8f1" d="M398.2 291.9l2 2z"/>
  <path id="path3479" fill="#fe9f11" d="M400.2 291.9l2 2z"/>
  <path id="path3481" fill="#fdab33" d="M406.3 291.9l-2 4z"/>
  <path id="path3483" fill="#fcb755" d="M408.3 291.9l2 2z"/>
  <path id="path3485" fill="#fea522" d="M432.7 291.9l2 2z"/>
  <path id="path3487" fill="#f9d099" d="M434.7 291.9l2 2z"/>
  <path id="path3489" fill="#53527c" d="M455 291.9l2 2z"/>
  <path id="path3491" fill="#808067" d="M315.6 295.3l.7 1.3z"/>
  <path id="path3493" fill="#fea522" d="M337.3 293.9l2 2-2-2m6 0l2 2-2-2z"/>
  <path id="path3495" fill="#fe9f11" d="M365.7 293.9l2 2z"/>
  <path id="path3497" fill="#fae3c9" d="M398.2 293.9l2 2z"/>
  <path id="path3499" fill="#fef8f1" d="M406.3 293.9l2 2z"/>
  <path id="path3501" fill="#fcb144" d="M410.4 293.9l2 2z"/>
  <path id="path3503" fill="#fcb755" d="M436.8 293.9l2 2z"/>
  <path id="path3505" fill="#fef8f1" d="M438.8 293.9l4 4z"/>
  <path id="path3507" fill="#e5e59d" d="M449.6 295.3l.7 1.3z"/>
  <path id="path3509" fill="#32327b" d="M455.7 295.3l.7 1.3z"/>
  <path id="path3511" fill="#fcb755" d="M338 297.3l.6 1.4z"/>
  <path id="path3513" fill="#fef8f1" d="M345.4 295.9l2 2z"/>
  <path id="path3515" fill="#fbbe66" d="M365.7 295.9l2 2z"/>
  <path id="path3517" fill="#fbead6" d="M398.2 295.9l2 2z"/>
  <path id="path3519" fill="#fe9f11" d="M402.2 295.9l2 2z"/>
  <path id="path3521" fill="#fcf1e4" d="M404.3 295.9l2 2z"/>
  <path id="path3523" fill="#fbead6" d="M410.4 295.9l2 2z"/>
  <path id="path3525" fill="#fdab33" d="M438.8 295.9l2 2z"/>
  <path id="path3527" fill="#667" d="M315 297.9l2 2-2-2z"/>
  <path id="path3529" fill="#f6f6e4" d="M321 297.9l2 2-2-2z"/>
  <path id="path3531" fill="#f9d6aa" d="M345.4 297.9l2 2-2-2z"/>
  <path id="path3533" fill="#fdab33" d="M361.6 297.9l2 2-2-2z"/>
  <path id="path3535" fill="#fe9f11" d="M363.6 297.9l2 2-2-2z"/>
  <path id="path3537" fill="#fcf1e4" d="M365.7 297.9l2 2-2-2z"/>
  <path id="path3539" fill="#fea522" d="M400.2 297.9l2 2-2-2z"/>
  <path id="path3541" fill="#faca88" d="M402.2 297.9l2 2-2-2m10.2 0l2 2z"/>
  <path id="path3543" fill="#fcb144" d="M440.8 297.9l2 2-2-2z"/>
  <path id="path3545" fill="#dddc7a" d="M448.9 297.9l2 2-2-2z"/>
  <path id="path3547" fill="#58587b" d="M315 300l2 2z"/>
  <path id="path3549" fill="#f2f1d2" d="M321 300l2 2z"/>
  <path id="path3551" fill="#fcb144" d="M338 301.4l.6 1.3z"/>
  <path id="path3553" fill="#fea522" d="M345.4 300l2 2z"/>
  <path id="path3555" fill="#fef8f1" d="M365.7 300l2 2z"/>
  <path id="path3557" fill="#fea522" d="M367.7 300l2 2z"/>
  <path id="path3559" fill="#fcb144" d="M371.8 300l2 2z"/>
  <path id="path3561" fill="#fbead6" d="M373.8 300l2 2z"/>
  <path id="path3563" fill="#f8dcbb" d="M400.2 300l2 2z"/>
  <path id="path3565" fill="#fcf1e4" d="M402.2 300l2 2z"/>
  <path id="path3567" fill="#fef8f1" d="M412.4 300l2 2z"/>
  <path id="path3569" fill="#fe9f11" d="M414.4 300l2 2z"/>
  <path id="path3571" fill="#fbead6" d="M442.9 300l2 2z"/>
  <path id="path3573" fill="#d9d868" d="M448.9 300l2 2z"/>
  <path id="path3575" fill="#3a3a7c" d="M315 302l2 2z"/>
  <path id="path3577" fill="#e5e3af" d="M321 302l2 2z"/>
  <path id="path3579" fill="#faca88" d="M347.4 302l2 2z"/>
  <path id="path3581" fill="#fbead6" d="M367.7 302l2 2z"/>
  <path id="path3583" fill="#fe9f11" d="M373.8 302l2 2z"/>
  <path id="path3585" fill="#fcf1e4" d="M375.9 302l2 2z"/>
  <path id="path3587" fill="#fbead6" d="M398.2 302l2 2z"/>
  <path id="path3589" fill="#fae3c9" d="M400.2 302l2 2z"/>
  <path id="path3591" fill="#fbead6" d="M402.2 302l2 2z"/>
  <path id="path3593" fill="#fbbe66" d="M414.4 302l2 2-2-2m16.3 0l2 2z"/>
  <path id="path3595" fill="#fcf1e4" d="M432.7 302l2 2z"/>
  <path id="path3597" fill="#fef8f1" d="M434.7 302l2 2z"/>
  <path id="path3599" fill="#f8dcbb" d="M436.8 302l2 2z"/>
  <path id="path3601" fill="#fcb755" d="M438.8 302l2 2z"/>
  <path id="path3603" fill="#fae3c9" d="M442.9 302l2 2z"/>
  <path id="path3605" fill="#808067" d="M453 302l2 2z"/>
  <path id="path3607" fill="#32327b" d="M315 304l2 2z"/>
  <path id="path3609" fill="#a4a43d" d="M317.6 305.4l.7 1.4-.6-1.4z"/>
  <path id="path3611" fill="#e5e59d" d="M321 304l2 2z"/>
  <path id="path3613" fill="#fbc477" d="M337.3 304l2 2z"/>
  <path id="path3615" fill="#f9d6aa" d="M349.5 304l2 2z"/>
  <path id="path3617" fill="#fbbe66" d="M369.8 304l2 2z"/>
  <path id="path3619" fill="#f9d099" d="M375.9 304l2 2z"/>
  <path id="path3621" fill="#fae3c9" d="M394 304l2 2z"/>
  <path id="path3623" fill="#fcb144" d="M396.2 304l2 2z"/>
  <path id="path3625" fill="#fae3c9" d="M404.3 304l2 2z"/>
  <path id="path3627" fill="#f8dcbb" d="M414.4 304l2 2z"/>
  <path id="path3629" fill="#f9d099" d="M430.6 304l2 2-2-2z"/>
  <path id="path3631" fill="#fbc477" d="M440.8 304l2 2z"/>
  <path id="path3633" fill="#fbead6" d="M442.9 304l2 2z"/>
  <path id="path3635" fill="#737370" d="M453 304l2 2z"/>
  <path id="path3637" fill="#d9d868" d="M321 306l2 2z"/>
  <path id="path3639" fill="#f9d099" d="M337.3 306l2 2z"/>
  <path id="path3641" fill="#f9d6aa" d="M351.5 306l2 2-2-2m18.3 0l2 2z"/>
  <path id="path3643" fill="#fbc477" d="M375.9 306l2 2z"/>
  <path id="path3645" fill="#fef8f1" d="M386 306l2 2z"/>
  <path id="path3647" fill="#f8dcbb" d="M388 306l2 2z"/>
  <path id="path3649" fill="#fbc477" d="M390 306l2 2z"/>
  <path id="path3651" fill="#fea522" d="M392 306l2 2z"/>
  <path id="path3653" fill="#fbead6" d="M404.3 306l2 2z"/>
  <path id="path3655" fill="#f2f1d2" d="M446.9 306l2 2z"/>
  <path id="path3657" fill="#58587b" d="M453 306l2 2z"/>
  <path id="path3659" fill="#99994e" d="M317 308l2 2z"/>
  <path id="path3661" fill="#d0d045" d="M321 308l2 2z"/>
  <path id="path3663" fill="#fcb144" d="M353.6 308l2 2z"/>
  <path id="path3665" fill="#fae3c9" d="M355.6 308l2 2z"/>
  <path id="path3667" fill="#fef8f1" d="M369.8 308l2 2z"/>
  <path id="path3669" fill="#fcb755" d="M377.9 308l2 2z"/>
  <path id="path3671" fill="#fbc477" d="M379.9 308l2 2z"/>
  <path id="path3673" fill="#fcb144" d="M382 308l2 2z"/>
  <path id="path3675" fill="#fea522" d="M384 308l2 2z"/>
  <path id="path3677" fill="#fe9f11" d="M400.2 308l2 2z"/>
  <path id="path3679" fill="#f9d6aa" d="M402.2 308l2 2z"/>
  <path id="path3681" fill="#fef8f1" d="M430.6 308l2 2-2-2z"/>
  <path id="path3683" fill="#e0dea1" d="M446.9 308l2 2z"/>
  <path id="path3685" fill="#3a3a7c" d="M453 308l2 2z"/>
  <path id="path3687" fill="#737370" d="M317 310.2l2 2z"/>
  <path id="path3689" fill="#fbfaf2" d="M323 310.2l2 2z"/>
  <path id="path3691" fill="#fea522" d="M339.3 310.2l2 2z"/>
  <path id="path3693" fill="#fe9f11" d="M357.6 310.2l2 2z"/>
  <path id="path3695" fill="#fcb144" d="M359.6 310.2l2 2z"/>
  <path id="path3697" fill="#fbc477" d="M361.6 310.2l2 2z"/>
  <path id="path3699" fill="#faca88" d="M363.6 310.2l2 2-2-2z"/>
  <path id="path3701" fill="#fbc477" d="M365.7 310.2l2 2z"/>
  <path id="path3703" fill="#fcb144" d="M367.7 310.2l2 2z"/>
  <path id="path3705" fill="#fdab33" d="M369.8 310.2l2 2z"/>
  <path id="path3707" fill="#fbc477" d="M398.2 310.2l2 2z"/>
  <path id="path3709" fill="#fef8f1" d="M400.2 310.2l2 2z"/>
  <path id="path3711" fill="#fdab33" d="M428.6 310.2l2 2z"/>
  <path id="path3713" fill="#e1e18c" d="M446.9 310.2l2 2z"/>
  <path id="path3715" fill="#a4a43d" d="M451.6 311.5l.7 1.4z"/>
  <path id="path3717" fill="#262678" d="M453 310.2l2 2z"/>
  <path id="path3719" fill="#58587b" d="M317 312.2l2 2z"/>
  <path id="path3721" fill="#f2f1d2" d="M323 312.2l2 2z"/>
  <path id="path3723" fill="#faca88" d="M339.3 312.2l2 2z"/>
  <path id="path3725" fill="#fe9f11" d="M394 312.2l2 2z"/>
  <path id="path3727" fill="#fbead6" d="M396.2 312.2l2 2z"/>
  <path id="path3729" fill="#fbc477" d="M414.4 312.2l2 2z"/>
  <path id="path3731" fill="#faca88" d="M428.6 312.2l2 2z"/>
  <path id="path3733" fill="#d4d456" d="M446.9 312.2l2 2z"/>
  <path id="path3735" fill="#32327b" d="M317 314.2l2 2z"/>
  <path id="path3737" fill="#e5e59d" d="M323 314.2l2 2z"/>
  <path id="path3739" fill="#fef8f1" d="M339.3 314.2l2 2z"/>
  <path id="path3741" fill="#fe9f11" d="M341.3 314.2l2 2z"/>
  <path id="path3743" fill="#fbead6" d="M394 314.2l2 2z"/>
  <path id="path3745" fill="#fea522" d="M414.4 314.2l2 2z"/>
  <path id="path3747" fill="#fcf1e4" d="M428.6 314.2l2 2z"/>
  <path id="path3749" fill="#808067" d="M451 314.2l2 2z"/>
  <path id="path3751" fill="#0e0e6e" d="M317 316.2l2 2z"/>
  <path id="path3753" fill="#a4a43d" d="M319 316.2l2 2z"/>
  <path id="path3755" fill="#d9d868" d="M323 316.2l2 2z"/>
  <path id="path3757" fill="#f8dcbb" d="M341.3 316.2l2 2z"/>
  <path id="path3759" fill="#f9d6aa" d="M412.4 316.2l2 2z"/>
  <path id="path3761" fill="#faca88" d="M426.6 316.2l2 2z"/>
  <path id="path3763" fill="#f2f1d2" d="M444.9 316.2l2 2z"/>
  <path id="path3765" fill="#58587b" d="M451 316.2l2 2z"/>
  <path id="path3767" fill="#8d8d5b" d="M319 318.3l2 2z"/>
  <path id="path3769" fill="#f9d6aa" d="M343.4 318.3l2 2z"/>
  <path id="path3771" fill="#fdab33" d="M384 318.3l2 2z"/>
  <path id="path3773" fill="#fff" d="M386 318.3l2 2z"/>
  <path id="path3775" fill="#fcb144" d="M389.4 318.9l1.4.7z"/>
  <path id="path3777" fill="#fef8f1" d="M410.4 318.3l-2 4z"/>
  <path id="path3779" fill="#fe9f11" d="M412.4 318.3l2 2z"/>
  <path id="path3781" fill="#fdab33" d="M424.6 318.3l-2 4z"/>
  <path id="path3783" fill="#e5e59d" d="M444.9 318.3l2 2z"/>
  <path id="path3785" fill="#3a3a7c" d="M451 318.3l2 2z"/>
  <path id="path3787" fill="#667" d="M319 320.3l2 2z"/>
  <path id="path3789" fill="#f2f1d2" d="M325 320.3l2 2z"/>
  <path id="path3791" fill="#f9d6aa" d="M345.4 320.3l2 2z"/>
  <path id="path3793" fill="#fe9f11" d="M384 320.3l2 2z"/>
  <path id="path3795" fill="#faca88" d="M386 320.3l2 2z"/>
  <path id="path3797" fill="#fea522" d="M388 320.3l2 2z"/>
  <path id="path3799" fill="#fcf1e4" d="M390 320.3l2 2z"/>
  <path id="path3801" fill="#fdab33" d="M410.4 320.3l2 2z"/>
  <path id="path3803" fill="#fef8f1" d="M424.6 320.3l2 2z"/>
  <path id="path3805" fill="#d9d868" d="M444.9 320.3l2 2z"/>
  <path id="path3807" fill="#a4a43d" d="M448.9 320.3l2 2z"/>
  <path id="path3809" fill="#0e0e6e" d="M451 320.3l2 2z"/>
  <path id="path3811" fill="#3a3a7c" d="M319 322.3l2 2z"/>
  <path id="path3813" fill="#e5e59d" d="M325 322.3l2 2z"/>
  <path id="path3815" fill="#fae3c9" d="M347.4 322.3l4 4z"/>
  <path id="path3817" fill="#fe9f11" d="M349.5 322.3l2 2z"/>
  <path id="path3819" fill="#f8dcbb" d="M388 322.3l2 2z"/>
  <path id="path3821" fill="#fcf1e4" d="M406.3 322.3l2 2z"/>
  <path id="path3823" fill="#fdab33" d="M408.3 322.3l2 2z"/>
  <path id="path3825" fill="#fcb144" d="M420.6 322.3l2 2z"/>
  <path id="path3827" fill="#fef8f1" d="M422.6 322.3l2 2z"/>
  <path id="path3829" fill="#fbfaf2" d="M442.9 322.3l2 2z"/>
  <path id="path3831" fill="#8d8d5b" d="M448.9 322.3l2 2z"/>
  <path id="path3833" fill="#0e0e6e" d="M319 324.4l2 2z"/>
  <path id="path3835" fill="#a4a43d" d="M321 324.4l2 2z"/>
  <path id="path3837" fill="#d4d456" d="M325 324.4l2 2z"/>
  <path id="path3839" fill="#f9d6aa" d="M386 324.4l2 2z"/>
  <path id="path3841" fill="#f9d099" d="M404.3 324.4l2 2z"/>
  <path id="path3843" fill="#fe9f11" d="M406.3 324.4l2 2z"/>
  <path id="path3845" fill="#faca88" d="M418.5 324.4l2 2z"/>
  <path id="path3847" fill="#eeedc1" d="M442.9 324.4l2 2z"/>
  <path id="path3849" fill="#58587b" d="M448.9 324.4l2 2z"/>
  <path id="path3851" fill="#737370" d="M321 326.4l2 2z"/>
  <path id="path3853" fill="#f6f6e4" d="M327 326.4l2 2z"/>
  <path id="path3855" fill="#fbbe66" d="M349.5 326.4l2 2z"/>
  <path id="path3857" fill="#fcb144" d="M382 326.4l2 2z"/>
  <path id="path3859" fill="#f8dcbb" d="M384.6 327.8l.7 1.3z"/>
  <path id="path3861" fill="#fbbe66" d="M400.2 326.4l2 2z"/>
  <path id="path3863" fill="#fe9f11" d="M402.2 326.4l2 2z"/>
  <path id="path3865" fill="#fbc477" d="M414.4 326.4l2 2z"/>
  <path id="path3867" fill="#fcf1e4" d="M416.5 326.4l2 2z"/>
  <path id="path3869" fill="#d3d079" d="M442.9 326.4l2 2z"/>
  <path id="path3871" fill="#a4a43d" d="M446.9 326.4l2 2z"/>
  <path id="path3873" fill="#262678" d="M448.9 326.4l2 2z"/>
  <path id="path3875" fill="#49497d" d="M321 328.4l2 2z"/>
  <path id="path3877" fill="#e0dea1" d="M327 328.4l2 2z"/>
  <path id="path3879" fill="#fae3c9" d="M347.4 328.4l2 2z"/>
  <path id="path3881" fill="#fdab33" d="M375.9 328.4l2 2z"/>
  <path id="path3883" fill="#fbc477" d="M377.9 328.4l2 2z"/>
  <path id="path3885" fill="#fbead6" d="M379.9 328.4l2 2z"/>
  <path id="path3887" fill="#fcb144" d="M386 328.4l2 2z"/>
  <path id="path3889" fill="#f9d6aa" d="M412.4 328.4l2 2z"/>
  <path id="path3891" fill="#99994e" d="M446.9 328.4l2 2z"/>
  <path id="path3893" fill="#0e0e6e" d="M321 330.5l2 2z"/>
  <path id="path3895" fill="#a4a43d" d="M323 330.5l2 2z"/>
  <path id="path3897" fill="#d4d456" d="M327 330.5l2 2z"/>
  <path id="path3899" fill="#f9d099" d="M345.4 330.5l2 2z"/>
  <path id="path3901" fill="#fe9f11" d="M347.4 330.5l2 2-2-2m10.2 0l2 2z"/>
  <path id="path3903" fill="#f9d6aa" d="M359.6 330.5l2 2z"/>
  <path id="path3905" fill="#f9d099" d="M361.6 330.5l2 2z"/>
  <path id="path3907" fill="#f9d6aa" d="M369.8 330.5l2 2z"/>
  <path id="path3909" fill="#fae3c9" d="M371.8 330.5l2 2z"/>
  <path id="path3911" fill="#fef8f1" d="M373.8 330.5l2 2z"/>
  <path id="path3913" fill="#fbead6" d="M390 330.5l2 2z"/>
  <path id="path3915" fill="#fae3c9" d="M392 330.5l2 2z"/>
  <path id="path3917" fill="#faca88" d="M394 330.5l2 2z"/>
  <path id="path3919" fill="#fbc477" d="M396.2 330.5l2 2z"/>
  <path id="path3921" fill="#fdab33" d="M398.2 330.5l2 2z"/>
  <path id="path3923" fill="#fe9f11" d="M408.3 330.5l2 2z"/>
  <path id="path3925" fill="#f9d6aa" d="M410.4 330.5l2 2z"/>
  <path id="path3927" fill="#e5e3af" d="M440.8 330.5l2 2z"/>
  <path id="path3929" fill="#667" d="M446.9 330.5l2 2z"/>
  <path id="path3931" fill="#737370" d="M323 332.5l2 2z"/>
  <path id="path3933" fill="#f2f1d7" d="M329.2 332.5l2 2z"/>
  <path id="path3935" fill="#fea522" d="M343.4 332.5l2 2z"/>
  <path id="path3937" fill="#fe9f11" d="M353.6 332.5l2 2z"/>
  <path id="path3939" fill="#fbbe66" d="M355.6 332.5l2 2z"/>
  <path id="path3941" fill="#fcf1e4" d="M357.6 332.5l2 2z"/>
  <path id="path3943" fill="#fea522" d="M406.3 332.5l2 2z"/>
  <path id="path3945" fill="#fbead6" d="M408.3 332.5l2 2z"/>
  <path id="path3947" fill="#dddc7a" d="M440.8 332.5l2 2z"/>
  <path id="path3949" fill="#a4a43d" d="M444.9 332.5l2 2z"/>
  <path id="path3951" fill="#262678" d="M446.9 332.5l2 2z"/>
  <path id="path3953" fill="#49497d" d="M323 334.5l2 2z"/>
  <path id="path3955" fill="#a4a43d" d="M325.8 335.9l.7 1.3z"/>
  <path id="path3957" fill="#d3d079" d="M329.2 334.5l2 2z"/>
  <path id="path3959" fill="#f9d099" d="M345.4 334.5l2 2z"/>
  <path id="path3961" fill="#fcb144" d="M347.4 334.5l2 2z"/>
  <path id="path3963" fill="#faca88" d="M349.5 334.5l2 2z"/>
  <path id="path3965" fill="#f8dcbb" d="M351.5 334.5l2 2z"/>
  <path id="path3967" fill="#fef8f1" d="M353.6 334.5l2 2z"/>
  <path id="path3969" fill="#f8dcbb" d="M398.2 334.5l2 2z"/>
  <path id="path3971" fill="#fcf1e4" d="M406.3 334.5l2 2z"/>
  <path id="path3973" fill="#f6f6e4" d="M438.8 334.5l2 2z"/>
  <path id="path3975" fill="#8d8d5b" d="M444.9 334.5l2 2z"/>
  <path id="path3977" fill="#fbfaf2" d="M331.2 336.5l2 2z"/>
  <path id="path3979" fill="#fbbe66" d="M398.2 336.5l2 2z"/>
  <path id="path3981" fill="#faca88" d="M404.3 336.5l2 2z"/>
  <path id="path3983" fill="#e1e18c" d="M438.8 336.5l2 2z"/>
  <path id="path3985" fill="#49497d" d="M444.9 336.5l2 2z"/>
  <path id="path3987" fill="#58587b" d="M325 338.6l2 2z"/>
  <path id="path3989" fill="#e5e59d" d="M331.2 338.6l2 2z"/>
  <path id="path3991" fill="#fe9f11" d="M398.2 338.6l2 2z"/>
  <path id="path3993" fill="#fdab33" d="M402.2 338.6l2 2z"/>
  <path id="path3995" fill="#fbfaf2" d="M436.8 338.6l2 2z"/>
  <path id="path3997" fill="#a4a43d" d="M442.9 338.6l2 2z"/>
  <path id="path3999" fill="#0e0e6e" d="M444.9 338.6l2 2z"/>
  <path id="path3001" fill="#1b1b74" d="M325 340.6l2 2z"/>
  <path id="path3003" fill="#a4a43d" d="M327 340.6l2 2z"/>
  <path id="path3005" fill="#d0d045" d="M331.2 340.6l2 2z"/>
  <path id="path3007" fill="#fbead6" d="M396.2 340.6l2 2z"/>
  <path id="path3009" fill="#fe9f11" d="M400.2 340.6l2 2z"/>
  <path id="path3011" fill="#fbead6" d="M402.2 340.6l2 2z"/>
  <path id="path3013" fill="#e5e59d" d="M436.8 340.6l2 2z"/>
  <path id="path3015" fill="#667" d="M442.9 340.6l2 2z"/>
  <path id="path3017" fill="#6e6c70" d="M327 342.6l2 2z"/>
  <path id="path3019" fill="#e5e3af" d="M333.2 342.6l2 2z"/>
  <path id="path3021" fill="#faca88" d="M396.8 344l.7 1.4z"/>
  <path id="path3023" fill="#fae3c9" d="M400.2 342.6l2 2z"/>
  <path id="path3025" fill="#fbfaf2" d="M434.7 342.6l2 2z"/>
  <path id="path3027" fill="#a4a43d" d="M440.8 342.6l2 2z"/>
  <path id="path3029" fill="#1b1b74" d="M442.9 342.6l2 2-2-2m-115.8 2l2 2z"/>
  <path id="path3031" fill="#a4a43d" d="M329.2 344.7l2 2z"/>
  <path id="path3033" fill="#d0d045" d="M333.2 344.7l2 2z"/>
  <path id="path3035" fill="#fbfaf2" d="M335.2 344.7l2 2z"/>
  <path id="path3037" fill="#f9d6aa" d="M398.2 344.7l2 2z"/>
  <path id="path3039" fill="#e5e59d" d="M434.7 344.7l2 2z"/>
  <path id="path3041" fill="#6e6c70" d="M440.8 344.7l2 2-2-2m-111.6 2l2 2z"/>
  <path id="path3043" fill="#8cbf84" d="M335.2 346.7l2 2z"/>
  <path id="path3045" fill="#0cf" d="M336 346.7c7 14.8 32 49.8 51 49.2 18.7-.7 39.6-35 47.7-49.2z"/>
  <path id="path3047" fill="#a4a43d" d="M438.8 346.7l2 2z"/>
  <path id="path3049" fill="#1b1b74" d="M440.8 346.7l2 2-2-2m-111.6 2l2 2z"/>
  <path id="path3051" fill="#a4a43d" d="M331.2 348.7l2 2z"/>
  <path id="path3053" fill="#adb333" d="M335.2 348.7l2 2z"/>
  <path id="path3055" fill="#1ac5b5" d="M337.3 348.7l2 2z"/>
  <path id="path3057" fill="#68b070" d="M432.7 348.7l2 2z"/>
  <path id="path3059" fill="#667" d="M438.8 348.7l2 2z"/>
  <path id="path3061" fill="#58587b" d="M331.2 350.8l2 2z"/>
  <path id="path3063" fill="#7fb15c" d="M337.3 350.8l2 2z"/>
  <path id="path3065" fill="#27c2aa" d="M430.6 350.8l2 2-2-2z"/>
  <path id="path3067" fill="#a4a43d" d="M436.8 350.8l-2 4z"/>
  <path id="path3069" fill="#0e0e6e" d="M438.8 350.8l2 2-2-2m-107.6 2l2 2z"/>
  <path id="path3071" fill="#a4a43d" d="M333.2 352.8l4 4z"/>
  <path id="path3073" fill="#34be9e" d="M339.3 352.8l2 2z"/>
  <path id="path3075" fill="#96b247" d="M430.6 352.8l2 2-2-2z"/>
  <path id="path3077" fill="#53527c" d="M436.8 352.8l2 2z"/>
  <path id="path3079" fill="#3a3a7c" d="M333.2 354.9l2 2z"/>
  <path id="path3081" fill="#a2b23d" d="M339.3 354.9l2 2z"/>
  <path id="path3083" fill="#0dc9c1" d="M341.3 354.9l2 2z"/>
  <path id="path3085" fill="#5bb47c" d="M428.6 354.9l2 2z"/>
  <path id="path3087" fill="#8d8d5b" d="M434.7 354.9l2 2z"/>
  <path id="path3089" fill="#737370" d="M335.2 356.9l2 2z"/>
  <path id="path3091" fill="#74b166" d="M341.3 356.9l2 2z"/>
  <path id="path3093" fill="#27c2aa" d="M426.6 356.9l2 2z"/>
  <path id="path3095" fill="#a4a43d" d="M432.7 356.9l-2 4z"/>
  <path id="path3097" fill="#262678" d="M434.7 356.9l2 2z"/>
  <path id="path3099" fill="#0e0e6e" d="M335.2 358.9l2 2z"/>
  <path id="path3101" fill="#a4a43d" d="M337.3 358.9l4 4z"/>
  <path id="path3103" fill="#42bb92" d="M343.4 358.9l2 2z"/>
  <path id="path3105" fill="#0dc9c1" d="M424.6 358.9l2 2z"/>
  <path id="path3107" fill="#96b247" d="M426.6 358.9l2 2z"/>
  <path id="path3109" fill="#58587b" d="M432.7 358.9l2 2z"/>
  <path id="path3111" fill="#3a3a7c" d="M337.3 360.9l2 2z"/>
  <path id="path3113" fill="#adb333" d="M343.4 360.9l2 2z"/>
  <path id="path3115" fill="#27c2aa" d="M345.4 360.9l2 2z"/>
  <path id="path3117" fill="#74b166" d="M424.6 360.9l2 2z"/>
  <path id="path3119" fill="#8d8d5b" d="M430.6 360.9l2 2-2-2z"/>
  <path id="path3121" fill="#6e6c70" d="M339.3 362.9l2 2z"/>
  <path id="path3123" fill="#96b247" d="M345.4 362.9l2 2z"/>
  <path id="path3125" fill="#0dc9c1" d="M347.4 362.9l2 2z"/>
  <path id="path3127" fill="#42bb92" d="M422.6 362.9l2 2z"/>
  <path id="path3129" fill="#a4a43d" d="M428.6 362.9l-4 6 4-6z"/>
  <path id="path3131" fill="#1b1b74" d="M430.6 362.9l2 2-2-2z"/>
  <path id="path3133" fill="#0e0e6e" d="M339.3 364.9l2 2-2-2z"/>
  <path id="path3135" fill="#8d8d5b" d="M341.3 364.9l2 2-2-2z"/>
  <path id="path3137" fill="#7fb15c" d="M347.4 364.9l2 2-2-2z"/>
  <path id="path3139" fill="#34be9e" d="M420.6 364.9l2 2-2-2z"/>
  <path id="path3141" fill="#3a3a7c" d="M428.6 364.9l2 2-2-2z"/>
  <path id="path3143" fill="#1b1b74" d="M341.3 367l2 2z"/>
  <path id="path3145" fill="#a4a43d" d="M343.4 367l22.3 22.3z"/>
  <path id="path3147" fill="#74b166" d="M349.5 367l2 2z"/>
  <path id="path3149" fill="#27c2aa" d="M418.5 367l2 2z"/>
  <path id="path3151" fill="#adb333" d="M420.6 367l2 2z"/>
  <path id="path3153" fill="#667" d="M426.6 367l2 2z"/>
  <path id="path3155" fill="#32327b" d="M343.4 369l2 2z"/>
  <path id="path3157" fill="#42bb92" d="M351.5 369l2 2z"/>
  <path id="path3159" fill="#0dc9c1" d="M416.5 369l-8.2 10.2 8.3-10.3z"/>
  <path id="path3161" fill="#adb333" d="M418.5 369l2 2z"/>
  <path id="path3163" fill="#737370" d="M424.6 369l2 2z"/>
  <path id="path3165" fill="#49497d" d="M345.4 371l2 2z"/>
  <path id="path3167" fill="#42bb92" d="M353.6 371l2 2z"/>
  <path id="path3169" fill="#96b247" d="M416.5 371l2 2z"/>
  <path id="path3171" fill="#8d8d5b" d="M422.6 371l-2 4z"/>
  <path id="path3173" fill="#0e0e6e" d="M424.6 371l2 2z"/>
  <path id="path3175" fill="#53527c" d="M347.4 373l2 2z"/>
  <path id="path3177" fill="#42bb92" d="M355.6 373l2 2z"/>
  <path id="path3179" fill="#96b247" d="M414.4 373l2 2z"/>
  <path id="path3181" fill="#0e0e6e" d="M422.6 373l2 2z"/>
  <path id="path3183" fill="#6e6c70" d="M349.5 375l2 2z"/>
  <path id="path3185" fill="#42bb92" d="M357.6 375l2 2z"/>
  <path id="path3187" fill="#96b247" d="M412.4 375l2 2z"/>
  <path id="path3189" fill="#a4a43d" d="M418.5 375l-4 6.2 4-6z"/>
  <path id="path3191" fill="#262678" d="M420.6 375l2 2z"/>
  <path id="path3193" fill="#6e6c70" d="M351.5 377.2l2 2z"/>
  <path id="path3195" fill="#42bb92" d="M359.6 377.2l2 2z"/>
  <path id="path3197" fill="#96b247" d="M410.4 377.2l2 2z"/>
  <path id="path3199" fill="#262678" d="M418.5 377.2l2 2z"/>
  <path id="path3201" fill="#6e6c70" d="M353.6 379.2l2 2z"/>
  <path id="path3203" fill="#68b070" d="M361.6 379.2l2 2z"/>
  <path id="path3205" fill="#27c2aa" d="M406.3 379.2l2 2z"/>
  <path id="path3207" fill="#adb333" d="M408.3 379.2l2 2z"/>
  <path id="path3209" fill="#262678" d="M416.5 379.2l2 2z"/>
  <path id="path3211" fill="#667" d="M355.6 381.2l2 2z"/>
  <path id="path3213" fill="#74b166" d="M363.6 381.2l2 2-2-2z"/>
  <path id="path3215" fill="#34be9e" d="M404.3 381.2l2 2z"/>
  <path id="path3217" fill="#adb333" d="M406.3 381.2l2 2z"/>
  <path id="path3219" fill="#8d8d5b" d="M412.4 381.2l-2 4z"/>
  <path id="path3221" fill="#262678" d="M414.4 381.2l2 2z"/>
  <path id="path3223" fill="#49497d" d="M357.6 383.2l2 2z"/>
  <path id="path3225" fill="#96b247" d="M365.7 383.2l2 2z"/>
  <path id="path3227" fill="#0dc9c1" d="M367.7 383.2l2 2z"/>
  <path id="path3229" fill="#42bb92" d="M402.2 383.2l2 2z"/>
  <path id="path3231" fill="#0e0e6e" d="M412.4 383.2l2 2z"/>
  <path id="path3233" fill="#49497d" d="M359.6 385.3l2 2z"/>
  <path id="path3235" fill="#a2b23d" d="M367.7 385.3l2 2z"/>
  <path id="path3237" fill="#27c2aa" d="M369.8 385.3l2 2z"/>
  <path id="path3239" fill="#74b166" d="M400.2 385.3l2 2z"/>
  <path id="path3241" fill="#a4a43d" d="M406.3 385.3l-6 8z"/>
  <path id="path3243" fill="#808067" d="M408.3 385.3l2 2z"/>
  <path id="path3245" fill="#0e0e6e" d="M410.4 385.3l2 2z"/>
  <path id="path3247" fill="#262678" d="M361.6 387.3l2 2z"/>
  <path id="path3249" fill="#adb333" d="M369.8 387.3l2 2z"/>
  <path id="path3251" fill="#42bb92" d="M371.8 387.3l2 2z"/>
  <path id="path3253" fill="#0dc9c1" d="M396.2 387.3l2 2z"/>
  <path id="path3255" fill="#96b247" d="M398.2 387.3l2 2z"/>
  <path id="path3257" fill="#6e6c70" d="M406.3 387.3l2 2z"/>
  <path id="path3259" fill="#1b1b74" d="M363.6 389.3l2 2-2-2z"/>
  <path id="path3261" fill="#8d8d5b" d="M365.7 389.3l2 2z"/>
  <path id="path3263" fill="#74b166" d="M373.8 389.3l2 2z"/>
  <path id="path3265" fill="#0dc9c1" d="M375.9 389.3l2 2z"/>
  <path id="path3267" fill="#34be9e" d="M394 389.3l2 2z"/>
  <path id="path3269" fill="#adb333" d="M396.2 389.3l2 2z"/>
  <path id="path3271" fill="#49497d" d="M404.3 389.3l2 2z"/>
  <path id="path3273" fill="#0e0e6e" d="M365.7 391.4l2 2z"/>
  <path id="path3275" fill="#6e6c70" d="M367.7 391.4l2 2z"/>
  <path id="path3277" fill="#a4a43d" d="M369.8 391.4l4 4z"/>
  <path id="path3279" fill="#96b247" d="M375.9 391.4l2 2z"/>
  <path id="path3281" fill="#27c2aa" d="M377.9 391.4l2 2z"/>
  <path id="path3283" fill="#68b070" d="M392 391.4l2 2z"/>
  <path id="path3285" fill="#32327b" d="M402.2 391.4l2 2z"/>
  <path id="path3287" fill="#49497d" d="M369.8 393.4l2 2z"/>
  <path id="path3289" fill="#5bb47c" d="M379.9 393.4l2 2z"/>
  <path id="path3291" fill="#27c2aa" d="M388 393.4l2 2z"/>
  <path id="path3293" fill="#96b247" d="M390 393.4l2 2z"/>
  <path id="path3295" fill="#a4a43d" d="M396.2 393.4l-2 4z"/>
  <path id="path3297" fill="#808067" d="M398.2 393.4l2 2z"/>
  <path id="path3299" fill="#0e0e6e" d="M400.2 393.4l2 2z"/>
  <path id="path3301" fill="#262678" d="M371.8 395.4l2 2z"/>
  <path id="path3303" fill="#8d8d5b" d="M373.8 395.4l2 2z"/>
  <path id="path3305" fill="#8bb252" d="M382 395.4l2 2z"/>
  <path id="path3307" fill="#1ac5b5" d="M384 395.4l2 2z"/>
  <path id="path3309" fill="#5bb47c" d="M386 395.4l2 2z"/>
  <path id="path3311" fill="#58587b" d="M396.2 395.4l2 2z"/>
  <path id="path3313" fill="#0e0e6e" d="M373.8 397.5l2 2z"/>
  <path id="path3315" fill="#667" d="M375.9 397.5l2 2z"/>
  <path id="path3317" fill="#a4a43d" d="M377.9 397.5l2 2z"/>
  <path id="path3319" fill="#99994e" d="M392 397.5l2 2z"/>
  <path id="path3321" fill="#32327b" d="M394 397.5l2 2-2-2m-16.1 2l2 2z"/>
  <path id="path3323" fill="#99994e" d="M379.9 399.5l2 2z"/>
  <path id="path3325" fill="#a4a43d" d="M388 399.5l2 2z"/>
  <path id="path3327" fill="#667" d="M390 399.5l2 2z"/>
  <path id="path3329" fill="#0e0e6e" d="M392 399.5l2 2-2-2m-12.1 2l2 2z"/>
  <path id="path3331" fill="#667" d="M382 401.5l2 2z"/>
  <path id="path3333" fill="#a4a43d" d="M384 401.5l2 2z"/>
  <path id="path3335" fill="#99994e" d="M386 401.5l2 2z"/>
  <path id="path3337" fill="#32327b" d="M388 401.5l2 2z"/>
  <path id="path3339" fill="#262678" d="M384 403.5l2 2z"/>
  <path id="path3341" fill="#0e0e6e" d="M386 403.5l2 2z"/>
  <path id="path3343" fill="#f90" d="M388 267.5c3.2 7.4 13.2 15.5 16 19.5-3.5 4-4.2 3.6-3.8 11 6-6.4 6.2-7 10.2-6.1 8.6 8.6 1.5 27-5.6 31-7.1 4.3-5.8-.1-16.5 5.2 4.9 4.2 10.6-.6 15.2.7 2.5 3-1.2 8.4.7 13.6 4-.4 3.6-8.7 4.6-11.7 3-11 21-18.6 21.9-28.7 3.8-1.7 7.5-.5 12 2-2.2-9.4-9.7-9.3-11.8-12.2-4.8-7.4-9.1-15.8-19.4-18-8-1.7-7.3.5-12.3-3-3.2-2.4-12.7-7-11.2-3.3z"/>
  <path id="path3345" fill="#fff" fill-rule="evenodd" d="M410.6 275.9a1.6 1.6 0 11-3.3 0 1.6 1.6 0 013.3 0z"/>
  <path id="path3347" fill="#f90" d="M362.9 298.8c5-6.2 7.6-19 9.8-23.2 5.2 1.2 5 2 11.5-1.8-8.5-2.4-9.2-2.2-10.2-6.1 3.6-11.7 23.2-14 30-9.6 7.2 4.3 2.7 5.2 12.4 12 1.4-6.2-5.5-9-6.5-13.6 1.5-3.7 8-3 11.6-7-2.2-3.5-9.3.8-12.4 1.4-11 2.5-26.3-9.8-35.6-6-3.3-2.5-4-6.4-4-11.7-7.1 6.5-3.5 13-5.2 16.3-4.2 7.7-9.7 15.5-6.8 25.6 2.2 7.8 3.8 6.2 3.2 12.3-.7 3.9-.4 14.5 2.2 11.4z"/>
  <path id="path3349" fill="#fff" fill-rule="evenodd" d="M359.8 274.9c.8-.4 1.8-.1 2.2.7a1.6 1.6 0 11-2.2-.7z"/>
  <path id="path3351" fill="#f90" d="M404 303c-8-1-20.1 3.4-25 3.8-1.5-5.1-.8-5.5-7.4-9 2.3 8.6 2.8 9 0 12-11.8 2.9-24-12.7-23.8-20.8 0-8.3 3.2-5 4-17-6 2-4.8 9.5-8.3 12.8-4 .6-6.6-5.3-12-6.3-1.8 3.7 5.5 7.5 7.6 9.9 7.9 8.2 5.2 27.5 13.3 33.5-.4 4.2-3.4 6.8-8 9.4 9.3 2.9 13-3.7 16.7-4 8.8-.2 18.3.4 25.5-7.3 5.4-6 3.3-6.5 8.8-9 3.7-1.4 12.6-7.2 8.6-8z"/>
  <path id="path3353" fill="#fff" fill-rule="evenodd" d="M385.2 318.2a1.6 1.6 0 111.7-2.8 1.6 1.6 0 01-1.7 2.8z"/>
  <path id="path6674" fill="#012169" stroke-width=".5" d="M0 0h356v256H0z"/>
  <path id="path6676" fill="#fff" stroke-width=".5" d="M256 0v32l-95 96 95 93.5V256h-33.5L127 162l-93 94H0v-34l93-93.5L0 37V0h31l96 94 93-94z"/>
  <path id="path6678" fill="#c8102e" stroke-width=".5" d="M92 162l5.5 17L21 256H0v-1.5zm62-6l27 4 75 73.5V256zM256 0l-96 98-2-22 75-76zM0 .5L96.5 95 67 91 0 24.5z"/>
  <path id="path6680" fill="#fff" stroke-width=".5" d="M88 0v256h80V0zM0 88v80h356V88z"/>
  <path id="path6682" fill="#c8102e" stroke-width=".5" d="M0 104v48h356v-48zM104 0v256h48V0z"/>
</svg>
